<svg xmlns="http://www.w3.org/2000/svg" xmlns:xlink="http://www.w3.org/1999/xlink" id="Layer_1" x="0" y="0" version="1.1" viewBox="0 0 64 64" xml:space="preserve" style="enable-background:new 0 0 64 64"><style type="text/css">.st0{fill:url(#Hierarchical_Data_Grid_1_)}</style><linearGradient id="Hierarchical_Data_Grid_1_" x1="32" x2="32" y1="0" y2="64" gradientUnits="userSpaceOnUse"><stop offset="0" style="stop-color:#ffab09"/><stop offset=".7" style="stop-color:#ff6358"/><stop offset="1" style="stop-color:#dd3169"/></linearGradient><path id="Hierarchical_Data_Grid" d="M0,0v64h64V0H0z M2,10h29v7H2V10z M2,19h29v7H2V19z M62,62H2V28h60V62z M62,26H33	v-7h29V26z M62,17H33v-7h29V17z M59,31H5v28h54V31z M31,57H7v-7h24V57z M31,48H7v-7h24V48z M57,57l-24,0v-7l24,0V57z M57,48l-24,0	v-7l24,0V48z" class="st0"/></svg>