<svg xmlns="http://www.w3.org/2000/svg" xmlns:xlink="http://www.w3.org/1999/xlink" id="Layer_1" x="0" y="0" version="1.1" viewBox="0 0 64 64" xml:space="preserve" style="enable-background:new 0 0 64 64"><style type="text/css">.st0{fill:url(#landing._page_1_)}</style><linearGradient id="landing._page_1_" x1="32" x2="32" y1="0" y2="64" gradientUnits="userSpaceOnUse"><stop offset="0" style="stop-color:#ffab09"/><stop offset=".7" style="stop-color:#ff6358"/><stop offset="1" style="stop-color:#dd3169"/></linearGradient><path id="landing._page" d="M0,0v64h64V0H0z M58,9c0,1.7-1.3,3-3,3s-3-1.3-3-3s1.3-3,3-3S58,7.3,58,9z M50,9	c0,1.7-1.3,3-3,3s-3-1.3-3-3s1.3-3,3-3S50,7.3,50,9z M42,9c0,1.7-1.3,3-3,3s-3-1.3-3-3s1.3-3,3-3S42,7.3,42,9z M62,62H2V18h60V62z M20,47H6V33h14V47z M25,47V33h14v14H25z M44,33h14v14H44V33z M58,28H6v-4h52V28z M58,56H6v-4h52V56z" class="st0"/></svg>