<svg xmlns="http://www.w3.org/2000/svg" xmlns:xlink="http://www.w3.org/1999/xlink" id="Layer_1" x="0" y="0" version="1.1" viewBox="0 0 64 64" xml:space="preserve" style="enable-background:new 0 0 64 64"><style type="text/css">.st0{fill:url(#Login_1_)}</style><linearGradient id="Login_1_" x1="32" x2="32" y1="0" y2="64" gradientUnits="userSpaceOnUse"><stop offset="0" style="stop-color:#ffab09"/><stop offset=".7" style="stop-color:#ff6358"/><stop offset="1" style="stop-color:#dd3169"/></linearGradient><path id="Login" d="M6,33v6h52v-6H6z M56,37H8v-2h48V37z M24,31H6v-2h20L24,31z M6,43h24v6H6V43z M6,19v6h52v-6H6z M56,23H8v-2h48V23z M0,0v64h64V0H0z M62,62H2V2h60V62z M24,17H6v-2h20L24,17z" class="st0"/></svg>