<svg xmlns="http://www.w3.org/2000/svg" xmlns:xlink="http://www.w3.org/1999/xlink" id="Layer_1" x="0" y="0" version="1.1" viewBox="0 0 64 64" xml:space="preserve" style="enable-background:new 0 0 64 64"><style type="text/css">.st0{fill:url(#Stacked_Grids_1_)}</style><linearGradient id="Stacked_Grids_1_" x1="32" x2="32" y1="0" y2="64" gradientUnits="userSpaceOnUse"><stop offset="0" style="stop-color:#ffab09"/><stop offset=".7" style="stop-color:#ff6358"/><stop offset="1" style="stop-color:#dd3169"/></linearGradient><path id="Stacked_Grids" d="M0,0v64v0h64v0V0H0z M33,10h29v7H33V10z M33,19h29v7H33V19z M2,10h29v7H2V10z M2,19h29v7H2	V19z M62,55v7H33v-7H62z M33,53v-7h29v7H33z M2,62v-7h29v7H2z M31,53H2v-7h29V53z M2,36v-8h60v8H2z" class="st0"/></svg>