<svg xmlns="http://www.w3.org/2000/svg" xmlns:xlink="http://www.w3.org/1999/xlink" id="Layer_1" x="0" y="0" version="1.1" viewBox="0 0 24 24" xml:space="preserve" style="enable-background:new 0 0 24 24"><style type="text/css">.st0{fill:url(#SVGID_2_)}</style><linearGradient id="SVGID_1_" x1="0" x2=".866" y1="24" y2="24.5" gradientUnits="userSpaceOnUse"><stop offset="0" style="stop-color:#ff9b5e"/><stop offset=".086" style="stop-color:#ff8c5d"/><stop offset=".195" style="stop-color:#ff7f5b"/><stop offset=".3" style="stop-color:#ff7b5b"/><stop offset=".7" style="stop-color:#ff6358"/><stop offset=".783" style="stop-color:#fc5f59"/><stop offset=".87" style="stop-color:#f4525e"/><stop offset=".958" style="stop-color:#e63e65"/><stop offset="1" style="stop-color:#dd3169"/></linearGradient><linearGradient id="SVGID_2_" x1="-3.402" x2="18.858" y1="6.84" y2="19.691" gradientTransform="matrix(1 0 0 -1 0 26)" gradientUnits="userSpaceOnUse"><stop offset="0" style="stop-color:#ff9b5e"/><stop offset=".086" style="stop-color:#ff8c5d"/><stop offset=".195" style="stop-color:#ff7f5b"/><stop offset=".3" style="stop-color:#ff7b5b"/><stop offset=".7" style="stop-color:#ff6358"/><stop offset=".783" style="stop-color:#fc5f59"/><stop offset=".87" style="stop-color:#f4525e"/><stop offset=".958" style="stop-color:#e63e65"/><stop offset="1" style="stop-color:#dd3169"/></linearGradient><path d="M20,5h2v15l0,0l-4,4H2V6h2v16h13.2l2.8-2.8V5z M6,7v2h10l2-2H6z M18,11H6v2h10L18,11z M6,17h6l2-2H6V17z M14,1	v2h8l2-2H14z M12,0H0v4h12V0z" class="st0"/></svg>