<svg xmlns="http://www.w3.org/2000/svg" xmlns:xlink="http://www.w3.org/1999/xlink" id="Layer_1" x="0" y="0" version="1.1" viewBox="0 0 24 24" xml:space="preserve" style="enable-background:new 0 0 24 24"><style type="text/css">.st0{fill:url(#SVGID_1_)}</style><linearGradient id="SVGID_1_" x1="-3.75" x2="16.76" y1="25.667" y2="13.825" gradientTransform="matrix(1 0 0 -1 0 28)" gradientUnits="userSpaceOnUse"><stop offset="0" style="stop-color:#ff9b5e"/><stop offset=".086" style="stop-color:#ff8c5d"/><stop offset=".195" style="stop-color:#ff7f5b"/><stop offset=".3" style="stop-color:#ff7b5b"/><stop offset=".7" style="stop-color:#ff6358"/><stop offset=".783" style="stop-color:#fc5f59"/><stop offset=".87" style="stop-color:#f4525e"/><stop offset=".958" style="stop-color:#e63e65"/><stop offset="1" style="stop-color:#dd3169"/></linearGradient><path d="M6,13h3v3H6V13z M21,18.5c0,3-2.5,5.5-5.5,5.5S10,21.5,10,18.5s2.5-5.5,5.5-5.5S21,15.5,21,18.5z M19,18.5	c0-1.9-1.6-3.5-3.5-3.5S12,16.6,12,18.5s1.6,3.5,3.5,3.5S19,20.4,19,18.5z M16,17h-1v2h2v-1h-1L16,17L16,17z M9,9H6v3h3V9z M4,4H2	v20h7v-2H4V4z M6,20h3v-3H6V20z M10,12h3V9h-3V12z M17,5h-3v3h3V5z M0,0v2h22l2-2H0z M21,4h-2v8h2V4z M13,5h-3v3h3V5z M14,12h3V9h-3	V12z" class="st0"/></svg>