<svg xmlns="http://www.w3.org/2000/svg" xmlns:xlink="http://www.w3.org/1999/xlink" id="Layer_1" x="0" y="0" version="1.1" viewBox="0 0 24 24" xml:space="preserve" style="enable-background:new 0 0 24 24"><style type="text/css">.st0{fill:url(#SVGID_2_)}</style><linearGradient id="SVGID_1_" x1="0" x2=".866" y1="24" y2="24.5" gradientUnits="userSpaceOnUse"><stop offset="0" style="stop-color:#ff9b5e"/><stop offset=".086" style="stop-color:#ff8c5d"/><stop offset=".195" style="stop-color:#ff7f5b"/><stop offset=".3" style="stop-color:#ff7b5b"/><stop offset=".7" style="stop-color:#ff6358"/><stop offset=".783" style="stop-color:#fc5f59"/><stop offset=".87" style="stop-color:#f4525e"/><stop offset=".958" style="stop-color:#e63e65"/><stop offset="1" style="stop-color:#dd3169"/></linearGradient><linearGradient id="SVGID_2_" x1="-2.804" x2="18.896" y1="5.453" y2="17.982" gradientTransform="matrix(1 0 0 -1 0 26)" gradientUnits="userSpaceOnUse"><stop offset="0" style="stop-color:#ff9b5e"/><stop offset=".086" style="stop-color:#ff8c5d"/><stop offset=".195" style="stop-color:#ff7f5b"/><stop offset=".3" style="stop-color:#ff7b5b"/><stop offset=".7" style="stop-color:#ff6358"/><stop offset=".783" style="stop-color:#fc5f59"/><stop offset=".87" style="stop-color:#f4525e"/><stop offset=".958" style="stop-color:#e63e65"/><stop offset="1" style="stop-color:#dd3169"/></linearGradient><path d="M0,3v18h24V3H0z M22,19H2V5h20V19z M6,7L4,9v8h2V7z M12,17l2-2h-4v-2h2l2-2V9l-2-2h-2L8,9h4v2h-2l-2,2v2l2,2H12	z M0,3v18h24V3H0z M22,19H2V5h20V19z M6,7L4,9v8h2V7z M12,17l2-2h-4v-2h2l2-2V9l-2-2h-2L8,9h4v2h-2l-2,2v2l2,2H12z M0,3v18h24V3H0z M22,19H2V5h20V19z M6,7L4,9v8h2V7z M12,17l2-2h-4v-2h2l2-2V9l-2-2h-2L8,9h4v2h-2l-2,2v2l2,2H12z M0,3v18h24V3H0z M22,19H2V5h20V19z M6,7L4,9v8h2V7z M12,17l2-2h-4v-2h2l2-2V9l-2-2h-2L8,9h4v2h-2l-2,2v2l2,2H12z M0,3v18h24V3H0z M22,19H2V5h20V19z M6,7L4,9v8h2V7z M12,17l2-2h-4v-2h2l2-2V9l-2-2h-2L8,9h4v2h-2l-2,2v2l2,2H12z M0,3v18h24V3H0z M22,19H2V5h20V19z M6,7L4,9v8h2V7z M12,17l2-2h-4v-2	h2l2-2V9l-2-2h-2L8,9h4v2h-2l-2,2v2l2,2H12z M0,3v18h24V3H0z M22,19H2V5h20V19z M6,7L4,9v8h2V7z M12,17l2-2h-4v-2h2l2-2V9l-2-2h-2	L8,9h4v2h-2l-2,2v2l2,2H12z M0,3v18h24V3H0z M22,19H2V5h20V19z M6,7L4,9v8h2V7z M12,17l2-2h-4v-2h2l2-2V9l-2-2h-2L8,9h4v2h-2l-2,2v2	l2,2H12z" class="st0"/></svg>