<svg xmlns="http://www.w3.org/2000/svg" xmlns:xlink="http://www.w3.org/1999/xlink" id="Layer_1" x="0" y="0" version="1.1" viewBox="0 0 24 24" xml:space="preserve" style="enable-background:new 0 0 24 24"><style type="text/css">.st0{fill:url(#SVGID_2_)}</style><linearGradient id="SVGID_1_" x1="0" x2=".866" y1="24" y2="24.5" gradientUnits="userSpaceOnUse"><stop offset="0" style="stop-color:#ff9b5e"/><stop offset=".086" style="stop-color:#ff8c5d"/><stop offset=".195" style="stop-color:#ff7f5b"/><stop offset=".3" style="stop-color:#ff7b5b"/><stop offset=".7" style="stop-color:#ff6358"/><stop offset=".783" style="stop-color:#fc5f59"/><stop offset=".87" style="stop-color:#f4525e"/><stop offset=".958" style="stop-color:#e63e65"/><stop offset="1" style="stop-color:#dd3169"/></linearGradient><linearGradient id="SVGID_2_" x1="-3.434" x2="19.19" y1="6.821" y2="19.883" gradientTransform="matrix(1 0 0 -1 0 26)" gradientUnits="userSpaceOnUse"><stop offset="0" style="stop-color:#ff9b5e"/><stop offset=".086" style="stop-color:#ff8c5d"/><stop offset=".195" style="stop-color:#ff7f5b"/><stop offset=".3" style="stop-color:#ff7b5b"/><stop offset=".7" style="stop-color:#ff6358"/><stop offset=".783" style="stop-color:#fc5f59"/><stop offset=".87" style="stop-color:#f4525e"/><stop offset=".958" style="stop-color:#e63e65"/><stop offset="1" style="stop-color:#dd3169"/></linearGradient><path d="M20,4h2v16l0,0l-4,4H4H2v-2V4h2v18h13.2l2.8-2.8V4z M0,0v2h22l2-2H0z M6,11h8l-3-3l3-3H6V11z M6,19h8l-3-3l3-3	H6V19z M18,7h-4v2h4V7z M14,17h4v-2h-4V17z" class="st0"/></svg>