<svg xmlns="http://www.w3.org/2000/svg" xmlns:xlink="http://www.w3.org/1999/xlink" id="Layer_1" x="0" y="0" version="1.1" viewBox="0 0 24 24" xml:space="preserve" style="enable-background:new 0 0 24 24"><style type="text/css">.st0{fill:url(#SVGID_2_)}</style><linearGradient id="SVGID_1_" x1="0" x2=".866" y1="24" y2="24.5" gradientUnits="userSpaceOnUse"><stop offset="0" style="stop-color:#ff9b5e"/><stop offset=".086" style="stop-color:#ff8c5d"/><stop offset=".195" style="stop-color:#ff7f5b"/><stop offset=".3" style="stop-color:#ff7b5b"/><stop offset=".7" style="stop-color:#ff6358"/><stop offset=".783" style="stop-color:#fc5f59"/><stop offset=".87" style="stop-color:#f4525e"/><stop offset=".958" style="stop-color:#e63e65"/><stop offset="1" style="stop-color:#dd3169"/></linearGradient><linearGradient id="SVGID_2_" x1="-2.882" x2="20.202" y1="3.308" y2="16.636" gradientTransform="matrix(1 0 0 -1 0 26)" gradientUnits="userSpaceOnUse"><stop offset="0" style="stop-color:#ff9b5e"/><stop offset=".086" style="stop-color:#ff8c5d"/><stop offset=".195" style="stop-color:#ff7f5b"/><stop offset=".3" style="stop-color:#ff7b5b"/><stop offset=".7" style="stop-color:#ff6358"/><stop offset=".783" style="stop-color:#fc5f59"/><stop offset=".87" style="stop-color:#f4525e"/><stop offset=".958" style="stop-color:#e63e65"/><stop offset="1" style="stop-color:#dd3169"/></linearGradient><path d="M0,21h24v2H0V21z M12,9.2l-4,4l-8-8V8l8,8l4-4l6,6l6-6V9.2l-6,6L12,9.2z M17,8.2l-5-5L6.4,8.8l1.4,1.4L12,6l5,5	l7-7V1.2L17,8.2z M2.2,13L0,15.2V18l3.6-3.6L2.2,13z" class="st0"/></svg>