<svg xmlns="http://www.w3.org/2000/svg" xmlns:xlink="http://www.w3.org/1999/xlink" id="Layer_1" x="0" y="0" version="1.1" viewBox="0 0 24 24" xml:space="preserve" style="enable-background:new 0 0 24 24"><style type="text/css">.st0{fill:url(#SVGID_2_)}</style><linearGradient id="SVGID_1_" x1="0" x2=".866" y1="24" y2="24.5" gradientUnits="userSpaceOnUse"><stop offset="0" style="stop-color:#ff9b5e"/><stop offset=".086" style="stop-color:#ff8c5d"/><stop offset=".195" style="stop-color:#ff7f5b"/><stop offset=".3" style="stop-color:#ff7b5b"/><stop offset=".7" style="stop-color:#ff6358"/><stop offset=".783" style="stop-color:#fc5f59"/><stop offset=".87" style="stop-color:#f4525e"/><stop offset=".958" style="stop-color:#e63e65"/><stop offset="1" style="stop-color:#dd3169"/></linearGradient><linearGradient id="SVGID_2_" x1=".062" x2="17.59" y1="7.109" y2="17.229" gradientTransform="matrix(1 0 0 -1 0 26)" gradientUnits="userSpaceOnUse"><stop offset="0" style="stop-color:#ff9b5e"/><stop offset=".086" style="stop-color:#ff8c5d"/><stop offset=".195" style="stop-color:#ff7f5b"/><stop offset=".3" style="stop-color:#ff7b5b"/><stop offset=".7" style="stop-color:#ff6358"/><stop offset=".783" style="stop-color:#fc5f59"/><stop offset=".87" style="stop-color:#f4525e"/><stop offset=".958" style="stop-color:#e63e65"/><stop offset="1" style="stop-color:#dd3169"/></linearGradient><path d="M11,0C4.9,0.5,0,5.7,0,12c0,3,1.1,5.7,2.8,7.7l8.2-8.2V0z M9,10.7l-5.9,5.9c-0.2-0.4-0.4-0.7-0.5-1.1	C2.2,14.4,2,13.2,2,12c0-2.5,1-5,2.7-6.8C5.9,3.9,7.4,3,9,2.4V10.7z M4.3,21.1C6.4,22.9,9.1,24,12,24c6.3,0,11.5-4.8,12-11H12.4	L4.3,21.1z M21.6,15c-0.5,1.6-1.5,3.1-2.8,4.3C17,21,14.5,22,12,22c-1.2,0-2.4-0.2-3.5-0.6c-0.4-0.1-0.8-0.3-1.1-0.5l5.9-5.9H21.6z M13,0v11h11C23.5,5.1,18.9,0.5,13,0z M15,2.4c1.5,0.5,2.9,1.3,4.1,2.5c1.1,1.1,2,2.5,2.5,4.1H15V2.4z" class="st0"/></svg>