<svg xmlns="http://www.w3.org/2000/svg" xmlns:xlink="http://www.w3.org/1999/xlink" id="Layer_1" x="0" y="0" version="1.1" viewBox="0 0 24 24" xml:space="preserve" style="enable-background:new 0 0 24 24"><style type="text/css">.st0{fill:url(#SVGID_2_)}</style><linearGradient id="SVGID_1_" x1="0" x2=".866" y1="24" y2="24.5" gradientUnits="userSpaceOnUse"><stop offset="0" style="stop-color:#ff9b5e"/><stop offset=".086" style="stop-color:#ff8c5d"/><stop offset=".195" style="stop-color:#ff7f5b"/><stop offset=".3" style="stop-color:#ff7b5b"/><stop offset=".7" style="stop-color:#ff6358"/><stop offset=".783" style="stop-color:#fc5f59"/><stop offset=".87" style="stop-color:#f4525e"/><stop offset=".958" style="stop-color:#e63e65"/><stop offset="1" style="stop-color:#dd3169"/></linearGradient><linearGradient id="SVGID_2_" x1="-2.282" x2="18.098" y1="6.708" y2="18.475" gradientTransform="matrix(1 0 0 -1 0 26)" gradientUnits="userSpaceOnUse"><stop offset="0" style="stop-color:#ff9b5e"/><stop offset=".086" style="stop-color:#ff8c5d"/><stop offset=".195" style="stop-color:#ff7f5b"/><stop offset=".3" style="stop-color:#ff7b5b"/><stop offset=".7" style="stop-color:#ff6358"/><stop offset=".783" style="stop-color:#fc5f59"/><stop offset=".87" style="stop-color:#f4525e"/><stop offset=".958" style="stop-color:#e63e65"/><stop offset="1" style="stop-color:#dd3169"/></linearGradient><path d="M21,5H9V3h14L21,5z M9,13h12l2-2H9V13z M9,21h12l2-2H9V21z M4,1C2.3,1,1,2.3,1,4s1.3,3,3,3s3-1.3,3-3S5.7,1,4,1	z M7,12c0,1.7-1.3,3-3,3s-3-1.3-3-3s1.3-3,3-3S7,10.3,7,12z M5,12c0-0.6-0.4-1-1-1s-1,0.4-1,1s0.4,1,1,1S5,12.6,5,12z M7,20	c0,1.7-1.3,3-3,3s-3-1.3-3-3s1.3-3,3-3S7,18.3,7,20z M5,20c0-0.6-0.4-1-1-1s-1,0.4-1,1s0.4,1,1,1S5,20.6,5,20z" class="st0"/></svg>